{
.appVersion = "1192";
DisplayStrings = (
"/_part.vertical/ha-ethiopic",
"/_part.vertical/ha-ethiopic",
"/_part.hbar/ha-ethiopic",
"/_part.vertical",
"/_part.hu/hu-ethiopic",
"/_part.hee/hi-ethiopic",
"/hi-ethiopic/haa-ethiopic/hee-ethiopic/he-ethiopic/ho-ethiopic/hoa-ethiopic",
"/haa-ethiopic",
"/_part.ho/hee-ethiopic",
"/he-ethiopic",
"/ho-ethiopic",
"/hoa-ethiopic",
"/_part.bar/la-ethiopic",
"/lu-ethiopic/li-ethiopic/laa-ethiopic/lee-ethiopic/le-ethiopic/lo-ethiopic/lwa-ethiopic",
"/ha-ethiopic/hee-ethiopic/lu-ethiopic/le-ethiopic",
"/hha-ethiopic",
"/hhu-ethiopic/hhi-ethiopic/_part.vertical/hha-ethiopic/hhaa-ethiopic/hhee-ethiopic/hhe-ethiopic/hho-ethiopic/hhwa-ethiopic",
"/hhu-ethiopic/hhi-ethiopic/hhaa-ethiopic/hhee-ethiopic/hhe-ethiopic/hho-ethiopic/hhwa-ethiopic",
"/ha-ethiopic/hu-ethiopic/hi-ethiopic/haa-ethiopic/hee-ethiopic/he-ethiopic/ho-ethiopic/hoa-ethiopic/la-ethiopic/lu-ethiopic/li-ethiopic/laa-ethiopic/lee-ethiopic/le-ethiopic/lo-ethiopic/lwa-ethiopic/hha-ethiopic/hhu-ethiopic/hhi-ethiopic/hhaa-ethiopic/hhee-ethiopic/hhe-ethiopic/hho-ethiopic/hhwa-ethiopic",
"/ma-ethiopic",
"/hi-ethiopic/laa-ethiopic/ma-ethiopic",
"/sza-ethiopic",
"/ra-ethiopic",
"/sa-ethiopic",
"/ba-ethiopic",
"/ta-ethiopic",
"/aGlottal-ethiopic",
"/ki-ethiopic",
"/ba-ethiopic/ta-ethiopic/aGlottal-ethiopic/ki-ethiopic",
"/la-ethiopic",
"/ha-ethiopic",
"/_part.vertical",
"/qa-ethiopic",
"/_part.top/na-ethiopic",
"/wa-ethiopic",
"/aPharyngeal-ethiopic",
"/za-ethiopic",
"/ya-ethiopic",
"/da-ethiopic",
"/ga-ethiopic",
"/tha-ethiopic",
"/cha-ethiopic",
"/tsa-ethiopic",
"/pa-ethiopic",
"/mu-ethiopic",
"/mi-ethiopic/maa-ethiopic/mee-ethiopic/me-ethiopic/mo-ethiopic/mwa-ethiopic",
"/szu-ethiopic/szi-ethiopic/szaa-ethiopic/szee-ethiopic/sze-ethiopic/szo-ethiopic/szwa-ethiopic",
"/ru-ethiopic/ri-ethiopic/raa-ethiopic/ree-ethiopic/re-ethiopic/ro-ethiopic/rwa-ethiopic",
"/su-ethiopic/si-ethiopic/saa-ethiopic/see-ethiopic/se-ethiopic/so-ethiopic/swa-ethiopic",

glyphs = (
{
glyphname = "he-ethiopic";
lastChange = "2019-03-20 05:19:19 +0000";
layers = (
{
components = (
{
name = "ha-ethiopic";
}
);
layerId = "05EBA65B-5851-415C-B209-07266CF3D0E7";
paths = (
{
closed = 1;
nodes = (
"39 388 LINE",
"77 334 LINE",
"118 388 LINE",
"118 544 LINE",
"82 594 LINE",
"39 544 LINE"
);
}
);
width = 600;
}
);
unicode = 1205;
},
{
glyphname = "lwa-ethiopic";
lastChange = "2019-03-20 05:28:53 +0000";
layers = (
{
components = (
{
name = "la-ethiopic";
},
{
name = _part.hu;
transform = "{1, 0, 0, 1, 8, -312}";
},
{
name = _part.hu;
transform = "{-1, 0, 0, 1, 899, -312}";
}
);
layerId = "05EBA65B-5851-415C-B209-07266CF3D0E7";
paths = (
{
closed = 1;
nodes = (
"413 -93 LINE",
"487 -93 LINE",
"487 111 LINE",
"413 111 LINE"
);
}
);
width = 600;
}
);
unicode = 120F;
},
{
glyphname = "hhwa-ethiopic";
lastChange = "2019-03-20 05:34:20 +0000";
layers = (
{
components = (
{
name = "hha-ethiopic";
},
{
name = _part.bar;
transform = "{1, 0, 0, 1, 430, -553}";
}
);
layerId = "05EBA65B-5851-415C-B209-07266CF3D0E7";
paths = (
{
closed = 1;
nodes = (
"395 -109 LINE",
"670 -109 LINE",
"670 -80 LINE",
"395 -80 LINE"
);
}
);
width = 702;
}
);
unicode = 1217;
},
{
glyphname = "sza-ethiopic";
lastChange = "2019-03-20 18:29:14 +0000";
layers = (
{
components = (
{
name = _part.vertical;
transform = "{1, 0, 0, -1, 216, 500}";
},
{
name = _part.vertical;
transform = "{1, 0, 0, -1, 0, 500}";
},
{
name = _part.vertical;
transform = "{-1, 0, 0, -1, 689, 500}";
}
);
layerId = "05EBA65B-5851-415C-B209-07266CF3D0E7";
paths = (
{
closed = 1;
nodes = (
"135 0 LINE",
"549 0 LINE",
"549 42 LINE",
"135 42 LINE"
);
}
);
width = 652;
}
);
unicode = 1220;
},
{
glyphname = "ta-ethiopic";
lastChange = "2019-03-20 18:16:26 +0000";
layers = (
{
components = (
{
name = _part.vertical;
transform = "{1, 0, 0, 1, 180, 0}";
},
{
name = _part.vertical;
transform = "{1, 0, 0, 1, 180, 200}";
}
);
layerId = "05EBA65B-5851-415C-B209-07266CF3D0E7";
paths = (
{
closed = 1;
nodes = (
"141 465 LINE",
"506 465 LINE",
"506 502 LINE",
"141 502 LINE"
);
}
);
width = 600;
}
);
unicode = 1270;
},
{
glyphname = "aGlottal-ethiopic";
lastChange = "2019-03-20 20:26:12 +0000";
layers = (
{
components = (
{
name = _part.vertical;
transform = "{-1, 0, 0, 1, 279, 0}";
},
{
name = _part.vertical;
transform = "{1, 0, 0, 1, 270, 0}";
}
);
layerId = "05EBA65B-5851-415C-B209-07266CF3D0E7";
paths = (
{
closed = 1;
nodes = (
"129 464 LINE",
"439 464 LINE",
"439 500 LINE",
"129 500 LINE"
);
},
{
closed = 1;
nodes = (
"96 448 LINE",
"145 448 LINE",
"145 643 LINE",
"96 643 LINE"
);
},
{
closed = 1;
nodes = (
"27 581 LINE",
"98 581 LINE",
"98 725 LINE",
"27 725 LINE"
);
}
);
width = 600;
}
);
unicode = 12A0;
},
{
glyphname = "ka-ethiopic";
lastChange = "2019-03-20 21:09:16 +0000";
layers = (
{
components = (
{
name = _part.vertical;
transform = "{-1, 0, 0, 1, 279, 0}";
},
{
name = _part.vertical;
transform = "{1, 0, 0, 1, 280, 0}";
}
);
layerId = "05EBA65B-5851-415C-B209-07266CF3D0E7";
paths = (
{
closed = 1;
nodes = (
"121 461 LINE",
"432 461 LINE",
"432 500 LINE",
"121 500 LINE"
);
},
{
closed = 1;
nodes = (
"10 484 LINE",
"102 484 LINE",
"102 654 LINE",
"10 654 LINE"
);
}
);
width = 600;
}
);
unicode = 12A8;
},
{
glyphname = "ya-ethiopic";
lastChange = "2019-03-20 20:31:00 +0000";
layers = (
{
components = (
{
name = _part.vertical;
},
{
name = _part.hbar;
transform = "{1, 0, 0, 1, 0, 230}";
},
{
name = _part.hbar;
transform = "{1, 0, 0, 1, -4, 456}";
}
);
layerId = "05EBA65B-5851-415C-B209-07266CF3D0E7";
paths = (
{
closed = 1;
nodes = (
"511 233 LINE",
"513 248 OFFCURVE",
"511 263 OFFCURVE",
"506 277 CURVE SMOOTH",
"489 323 LINE",
"489 469 LINE SMOOTH",
"489 486 OFFCURVE",
"485 500 OFFCURVE",
"468 500 CURVE SMOOTH",
"416 500 LINE SMOOTH",
"405 500 OFFCURVE",
"396 486 OFFCURVE",
"396 469 CURVE SMOOTH",
"396 322 LINE",
"382 272 LINE SMOOTH",
"379 259 OFFCURVE",
"379 245 OFFCURVE",
"382 232 CURVE"
);
}
);
width = 600;
}
);
unicode = 12E8;
},
{
glyphname = "da-ethiopic";
lastChange = "2019-03-20 20:32:29 +0000";
layers = (
{
components = (
{
name = "ya-ethiopic";
},
{
name = _part.hbar;
transform = "{1, 0, 0, 1, -1, 100}";
}
);
layerId = "05EBA65B-5851-415C-B209-07266CF3D0E7";
paths = (
{
closed = 1;
nodes = (
"400 137 LINE",
"400 75 LINE SMOOTH",
"400 72 OFFCURVE",
"401 68 OFFCURVE",
"402 66 CURVE",
"436 13 LINE",
"441 4 OFFCURVE",
"449 0 OFFCURVE",
"459 0 CURVE SMOOTH",
"460 0 LINE SMOOTH",
"479 0 OFFCURVE",
"493 14 OFFCURVE",
"493 33 CURVE SMOOTH",
"493 137 LINE"
);
}
);
width = 600;
}
);
unicode = 12F0;
},
{
glyphname = "cha-ethiopic";
lastChange = "2019-03-20 20:35:08 +0000";
layers = (
{
components = (
{
name = "tha-ethiopic";
}
);
layerId = "05EBA65B-5851-415C-B209-07266CF3D0E7";
paths = (
{
closed = 1;
nodes = (
"169 98 LINE",
"244 98 LINE",
"244 116 LINE",
"169 116 LINE"
);
},
{
closed = 1;
nodes = (
"218 0 LINE",
"244 0 LINE",
"244 114 LINE",
"218 114 LINE"
);
},
{
closed = 1;
nodes = (
"156 0 LINE",
"244 0 LINE",
"244 27 LINE",
"156 27 LINE"
);
},
{
closed = 1;
nodes = (
"461 116 LINE",
"461 98 LINE",
"536 98 LINE",
"536 116 LINE"
);
},
{
closed = 1;
nodes = (
"461 114 LINE",
"461 0 LINE",
"487 0 LINE",
"487 114 LINE"
);
},
{
closed = 1;
nodes = (
"461 27 LINE",
"461 0 LINE",
"549 0 LINE",
"549 27 LINE"
);
}
);
width = 702;
}
);
unicode = 1328;
},
{
glyphname = "tsa-ethiopic";
lastChange = "2019-03-20 20:44:45 +0000";
layers = (
{
components = (
{
name = _part.hbar;
transform = "{1, 0, 0, 1, 0, 175}";
},
{
name = _part.hbar;
transform = "{1, 0, 0, 1, -4, 456}";
}
);
layerId = "05EBA65B-5851-415C-B209-07266CF3D0E7";
paths = (
{
closed = 1;
nodes = (
"429 232 LINE",
"489 323 LINE",
"489 469 LINE SMOOTH",
"489 486 OFFCURVE",
"485 500 OFFCURVE",
"468 500 CURVE SMOOTH",
"416 500 LINE SMOOTH",
"405 500 OFFCURVE",
"396 486 OFFCURVE",
"396 469 CURVE SMOOTH",
"396 322 LINE",
"382 272 LINE SMOOTH",
"379 259 OFFCURVE",
"379 245 OFFCURVE",
"382 232 CURVE"
);
},
{
closed = 1;
nodes = (
"160 233 LINE",
"203 233 LINE",
"205 248 OFFCURVE",
"203 263 OFFCURVE",
"198 277 CURVE SMOOTH",
"181 323 LINE",
"181 469 LINE SMOOTH",
"181 486 OFFCURVE",
"177 500 OFFCURVE",
"160 500 CURVE SMOOTH",
"108 500 LINE SMOOTH",
"97 500 OFFCURVE",
"88 486 OFFCURVE",
"88 469 CURVE SMOOTH",
"88 322 LINE"
);
},
{
closed = 1;
nodes = (
"172 267 OFFCURVE",
"166 255 OFFCURVE",
"163 242 CURVE SMOOTH",
"152 191 LINE",
"86 60 LINE SMOOTH",
"78 45 OFFCURVE",
"79 28 OFFCURVE",
"89 23 CURVE SMOOTH",
"136 0 LINE SMOOTH",
"151 -7 OFFCURVE",
"160 3 OFFCURVE",
"168 18 CURVE SMOOTH",
"235 148 LINE",
"271 181 LINE SMOOTH",
"282 191 OFFCURVE",
"290 204 OFFCURVE",
"295 218 CURVE",
"181 278 LINE"
);
},
{
closed = 1;
nodes = (
"294 218 LINE",
"299 204 OFFCURVE",
"307 191 OFFCURVE",
"318 181 CURVE SMOOTH",
"354 148 LINE",
"421 18 LINE SMOOTH",
"429 3 OFFCURVE",
"438 -7 OFFCURVE",
"453 0 CURVE SMOOTH",
"500 23 LINE SMOOTH",
"510 28 OFFCURVE",
"510 45 OFFCURVE",
"503 60 CURVE SMOOTH",
"437 191 LINE",
"426 242 LINE SMOOTH",
"423 255 OFFCURVE",
"417 267 OFFCURVE",
"408 278 CURVE"
);
}
);
width = 600;
}
);
unicode = 1338;
},
{
export = 0;
glyphname = _part.bar;
lastChange = "2019-03-20 05:24:14 +0000";
layers = (
{
layerId = "05EBA65B-5851-415C-B209-07266CF3D0E7";
paths = (
{
closed = 1;
nodes = (
"91 444 LINE",
"180 444 LINE",
"180 680 LINE SMOOTH",
"180 691 OFFCURVE",
"171 700 OFFCURVE",
"160 700 CURVE SMOOTH",
"111 700 LINE SMOOTH",
"100 700 OFFCURVE",
"91 691 OFFCURVE",
"91 680 CURVE SMOOTH"
);
}
);
width = 600;
}
);
},
{
export = 0;
glyphname = _part.hbar;
lastChange = "2019-03-20 18:23:14 +0000";
layers = (
{
layerId = "05EBA65B-5851-415C-B209-07266CF3D0E7";
paths = (
{
closed = 1;
nodes = (
"183 10 OFFCURVE",
"197 0 OFFCURVE",
"214 0 CURVE SMOOTH",
"372 0 LINE SMOOTH",
"389 0 OFFCURVE",
"403 10 OFFCURVE",
"403 23 CURVE SMOOTH",
"403 36 OFFCURVE",
"389 45 OFFCURVE",
"372 45 CURVE SMOOTH",
"214 45 LINE SMOOTH",
"197 45 OFFCURVE",
"183 36 OFFCURVE",
"183 23 CURVE SMOOTH"
);
}
);
width = 600;
}
);
},
{
export = 0;
glyphname = _part.hee;
lastChange = "2019-03-20 21:47:15 +0000";
layers = (
{
components = (
{
name = _part.hu;
transform = "{1, 0, 0, 1, 8, -352}";
}
);
layerId = "05EBA65B-5851-415C-B209-07266CF3D0E7";
paths = (
{
closed = 1;
nodes = (
"413 -133 LINE",
"487 -133 LINE",
"487 0 LINE",
"413 0 LINE"
);
}
);
width = 600;
}
);
},
{
export = 0;
glyphname = _part.ho;
lastChange = "2019-03-20 05:18:12 +0000";
layers = (
{
layerId = "05EBA65B-5851-415C-B209-07266CF3D0E7";
paths = (
{
closed = 1;
nodes = (
"412 -140 OFFCURVE",
"394 -124 OFFCURVE",
"394 -104 CURVE SMOOTH",
"394 -83 OFFCURVE",
"412 -67 OFFCURVE",
"434 -67 CURVE SMOOTH",
"455 -67 OFFCURVE",
"473 -83 OFFCURVE",
"473 -104 CURVE SMOOTH",
"473 -124 OFFCURVE",
"455 -140 OFFCURVE",
"434 -140 CURVE SMOOTH"
);
},
{
closed = 1;
nodes = (
"490 -180 OFFCURVE",
"533 -146 OFFCURVE",
"533 -103 CURVE SMOOTH",
"533 -60 OFFCURVE",
"490 -26 OFFCURVE",
"436 -26 CURVE SMOOTH",
"382 -26 OFFCURVE",
"339 -60 OFFCURVE",
"339 -103 CURVE SMOOTH",
"339 -146 OFFCURVE",
"382 -180 OFFCURVE",
"436 -180 CURVE SMOOTH"
);
}
);
width = 600;
}
);
},
{
export = 0;
glyphname = _part.hoa;
lastChange = "2019-03-20 21:46:26 +0000";
layers = (
{
layerId = "05EBA65B-5851-415C-B209-07266CF3D0E7";
paths = (
{
closed = 1;
nodes = (
"653 -143 LINE",
"727 -143 LINE",
"727 10 LINE",
"653 10 LINE"
);
},
{
closed = 1;
nodes = (
"726 -143 LINE",
"816 -143 LINE",
"844 -118 LINE",
"816 -94 LINE",
"726 -94 LINE"
);
},
{
closed = 1;
nodes = (
"564 -94 LINE",
"536 -118 LINE",
"564 -143 LINE",
"654 -143 LINE",
"654 -94 LINE"
);
}
);
width = 802;
}
);
},
{
export = 0;
glyphname = _part.hu;
lastChange = "2019-03-20 05:13:12 +0000";
layers = (
{
layerId = "05EBA65B-5851-415C-B209-07266CF3D0E7";
paths = (
{
closed = 1;
nodes = (
"478 219 LINE",
"568 219 LINE",
"596 244 LINE",
"568 268 LINE",
"478 268 LINE"
);
}
);
width = 618;
}
);
},
{
export = 0;
glyphname = _part.leg;
lastChange = "2019-03-20 21:39:51 +0000";
layers = (
{
layerId = "05EBA65B-5851-415C-B209-07266CF3D0E7";
paths = (
{
closed = 1;
nodes = (
"404 -158 LINE",
"496 -158 LINE",
"496 100 LINE",
"404 100 LINE"
);
}
);
width = 600;
}
);
},
{
export = 0;
glyphname = _part.top;
lastChange = "2019-03-20 20:24:45 +0000";
layers = (
{
layerId = "05EBA65B-5851-415C-B209-07266CF3D0E7";
paths = (
{
closed = 1;
nodes = (
"232 498 LINE",
"223 523 LINE",
"223 669 LINE SMOOTH",
"223 686 OFFCURVE",
"219 700 OFFCURVE",
"202 700 CURVE SMOOTH",
"150 700 LINE SMOOTH",
"139 700 OFFCURVE",
"130 686 OFFCURVE",
"130 669 CURVE SMOOTH",
"130 522 LINE",
"123 498 LINE"
);
}
);
width = 600;
}
);
},
{
export = 0;
glyphname = _part.vertical;
lastChange = "2019-03-20 18:25:02 +0000";
layers = (
{
layerId = "05EBA65B-5851-415C-B209-07266CF3D0E7";
paths = (
{
closed = 1;
nodes = (
"99 500 OFFCURVE",
"90 486 OFFCURVE",
"90 469 CURVE SMOOTH",
"90 322 LINE",
"76 272 LINE SMOOTH",
"72 257 OFFCURVE",
"73 241 OFFCURVE",
"78 225 CURVE SMOOTH",
"90 189 LINE",
"90 75 LINE SMOOTH",
"90 72 OFFCURVE",
"91 68 OFFCURVE",
"92 66 CURVE",
"126 13 LINE",
"131 4 OFFCURVE",
"139 0 OFFCURVE",
"149 0 CURVE SMOOTH",
"150 0 LINE SMOOTH",
"169 0 OFFCURVE",
"183 14 OFFCURVE",
"183 33 CURVE SMOOTH",
"183 183 LINE",
"197 210 LINE SMOOTH",
"208 232 OFFCURVE",
"208 255 OFFCURVE",
"200 277 CURVE SMOOTH",
"183 323 LINE",
"183 469 LINE SMOOTH",
"183 486 OFFCURVE",
"179 500 OFFCURVE",
"162 500 CURVE SMOOTH",
"110 500 LINE SMOOTH"
);
}
